# xmcd
#
# Track frame offsets: 
#        150
#        9070
#        23125
#        41795
#        63310
#        83680
#        90335
#        109687
#        134080
#        152065
#        157492
#        177527
#        212527
#
# Disc length: 3174 seconds
#
# Revision: 0
# Processed by: cddbd v1.5.2PL0 Copyright (c) Steve Scherf et al.
# Submitted via: ExactAudioCopyFreeDBPlugin 1.0
#
DISCID=a50c640d
DTITLE=Nadirah - Soul Power
DYEAR=1998
DGENRE=R&B
TTITLE0=A Brief Anthology Of My Life (Always There)
TTITLE1=Dumb Decisions
TTITLE2=My Own Song
TTITLE3=Sunshine
TTITLE4=I Know How 2 Love U
TTITLE5=In The Studio (Interlude)
TTITLE6=Know What I'm Lookin' For
TTITLE7=Give It To Me Straight
TTITLE8=Soul Power
TTITLE9=Ladies and Gentlemen (Interlude)
TTITLE10=Spiritual Destiny
TTITLE11=De Ja Vu
TTITLE12=The Love, Love, Love
EXTD=
EXTT0=
EXTT1=
EXTT2=
EXTT3=
EXTT4=
EXTT5=
EXTT6=
EXTT7=
EXTT8=
EXTT9=
EXTT10=
EXTT11=
EXTT12=
PLAYORDER=
